<?xml version="1.0" encoding="utf-8" ?><svg xmlns="http://www.w3.org/2000/svg" xmlns:xlink="http://www.w3.org/1999/xlink" width="1024" height="1024" viewBox="0 0 1024 1024"><path fill="white" d="M0 0L1024 0L1024 1024L0 1024L0 0Z"/><path fill="#193045" d="M798.927 419.732C803.674 421.024 805.995 423.521 809.722 426.292C829.691 441.138 838.899 444.912 832.929 471.854C837.266 475.822 854.088 487.041 859.486 490.753C878.115 503.576 896.841 516.259 915.661 528.799C921.084 532.417 926.351 536.196 931.896 539.626C934.138 541.012 937.574 542.805 937.311 545.753C934.522 549.735 881.412 600.599 877.912 600.414C864.45 599.702 837.387 583.381 823.201 577.451C813.85 573.542 807.257 568.407 795.253 572.279C770.824 583.679 810.207 600.145 819.189 604.515C824.971 607.419 872.353 631.303 873.614 632.899C874.548 634.079 874.385 634.597 874.332 636.029C873.245 637.588 873.946 637.015 872.087 637.72C866.318 636.939 820.625 611.682 811.089 607.237C815.941 617.33 815.381 629.307 802.152 631.322C797.813 631.962 793.403 630.768 789.98 628.027C783.28 622.673 783.452 613.493 788.707 607.066C792.155 602.849 797.671 602.597 802.716 602.308C791.41 597.706 773.148 586.541 785.257 570.822C789.173 565.739 797.931 565.421 804.085 565.453C805.903 555.592 808.484 546.174 810.769 536.428L821.758 489.556C824.095 479.9 827.565 468.009 828.895 458.166C831.072 442.051 804.631 434.617 797.875 423.414C797.211 422.314 798.445 420.614 798.927 419.732Z"/><path fill="#253F53" d="M830.956 477.908C837.709 482.266 845.031 487.639 851.693 492.28L853.719 493.848L879.991 511.562L882.245 513.197C885.918 515.357 904.347 527.282 907.123 529.779C907.92 530.883 907.821 530.931 909.069 531.399C912.25 532.231 926.611 542.688 929.961 545.039C921.818 552.87 913.633 560.658 905.407 568.403L903.776 569.917C895.771 577.647 884.997 588.191 876.508 595.009C871.763 593.811 867.283 591.631 862.931 589.41C861.54 588.545 861.651 588.533 860.038 588.377L840.195 578.878L837.837 577.608C832.68 575.425 823.405 571.621 818.842 568.823C818.424 568.492 817.514 568.138 816.98 567.893C815.274 567.13 812.564 566.25 810.736 565.59C811.396 559.113 814.017 549.61 815.501 543.248C817.52 534.589 819.418 525.892 821.444 517.242L821.893 515.619C824.763 503.366 827.603 489.931 830.956 477.908Z"/><path fill="white" d="M830.956 477.908C837.709 482.266 845.031 487.639 851.693 492.28L853.719 493.848L879.991 511.562C876.742 517.034 864.603 535.26 862.696 539.502L861.683 539.629C858.871 538.383 840.017 526.626 838.686 524.645L836.315 523.618C835.073 524.675 835.449 524.037 835.071 525.551C830.951 523.694 825.291 519.833 821.444 517.242L821.893 515.619C824.763 503.366 827.603 489.931 830.956 477.908Z"/><path fill="white" d="M830.956 477.908C837.709 482.266 845.031 487.639 851.693 492.28L853.719 493.848C850.137 501.35 842.475 518.611 838.686 524.645L836.315 523.618C835.073 524.675 835.449 524.037 835.071 525.551C830.951 523.694 825.291 519.833 821.444 517.242L821.893 515.619C824.763 503.366 827.603 489.931 830.956 477.908Z"/><path fill="#253F53" d="M851.693 492.28L853.719 493.848C850.137 501.35 842.475 518.611 838.686 524.645L836.315 523.618C839.005 519.809 849.196 497.531 851.693 492.28Z"/><path fill="#253F53" d="M821.893 515.619C827.403 517.697 832.94 522.424 836.315 523.618C835.073 524.675 835.449 524.037 835.071 525.551C830.951 523.694 825.291 519.833 821.444 517.242L821.893 515.619Z"/><path fill="#498453" d="M832.911 493.108C838.874 492.723 839.869 492.997 844.918 495.847C842.923 501.25 838.625 509.554 836 514.858C834.991 516.696 835.707 516.175 834.027 516.78C831.697 516.399 829.665 514.708 827.629 513.34C828.282 508.646 830.742 496.948 832.911 493.108Z"/><path fill="#498453" d="M855.219 501.273C860.498 503.518 869.045 509.573 872.687 514.059C869.038 520.719 865.252 527.302 861.332 533.806C858.629 533.851 847.187 525.55 844.395 523.637C846.67 517.629 852.046 506.999 855.219 501.273Z"/><path fill="white" d="M837.555 527.674C843.079 531.072 856.118 538.749 860.914 542.723C859.351 544.337 851.191 557.259 849.409 560.208C846.492 565.036 840.331 573.183 837.837 577.608C832.68 575.425 823.405 571.621 818.842 568.823C825.402 555.713 830.525 540.376 837.555 527.674Z"/><path fill="#498453" d="M839.239 533.996C843.184 535.214 851.086 540.781 854.835 543.246C850.279 551.71 843.313 561.65 837.847 569.747L836.725 571.02C833.741 571.652 827.92 567.961 824.849 566.393C827.4 558.697 835.297 541.357 839.239 533.996Z"/><path fill="white" d="M879.991 511.562L882.245 513.197C885.918 515.357 904.347 527.282 907.123 529.779C902.985 535.412 890.699 551.351 886.083 555.79C882.714 553.619 865.196 543.157 864.293 540.882C863.664 540.112 863.514 540.109 862.696 539.502C864.603 535.26 876.742 517.034 879.991 511.562Z"/><defs><linearGradient id="gradient_0" gradientUnits="userSpaceOnUse" x1="868.97083" y1="522.27905" x2="875.34003" y2="529.50635"><stop offset="0" stop-color="#384352"/><stop offset="1" stop-color="#344F5A"/></linearGradient></defs><path fill="url(#gradient_0)" d="M879.991 511.562L882.245 513.197C875.807 521.825 870.678 532.162 864.293 540.882C863.664 540.112 863.514 540.109 862.696 539.502C864.603 535.26 876.742 517.034 879.991 511.562Z"/><path fill="#45BCC9" d="M882.984 519.551C887.343 521.359 895.829 528.267 900.164 531.315C896.197 537.606 890.989 543.976 885.862 549.308L885.214 549.63C882.717 549.856 872.282 542.28 869.809 540.441C871.937 535.944 879.978 523.719 882.984 519.551Z"/><path fill="white" d="M862.725 543.642C869.908 548.375 877.793 553.062 884.738 557.745C878.867 565.207 866.252 582.126 860.038 588.377L840.195 578.878C847.546 567.48 855.226 554.707 862.725 543.642Z"/><path fill="#45BCC9" d="M863.9 550.227C867.099 550.611 875.204 556.367 878.256 558.31C875.384 563.195 864.162 577.451 860.344 581.371C857.975 583.539 849.273 577.787 846.841 576.308C849.551 571.217 860.429 554.824 863.9 550.227Z"/><path fill="white" d="M909.069 531.399C912.25 532.231 926.611 542.688 929.961 545.039C921.818 552.87 913.633 560.658 905.407 568.403C901.166 565.069 893.441 560.349 888.715 557.264C894.194 549.188 902.872 539.446 909.069 531.399Z"/><path fill="#45BCC9" d="M910.081 537.779C912.871 538.244 918.913 543.669 921.009 545.708C916.336 550.562 910.489 556.771 905.247 560.844C901.58 563.137 897.897 558.657 894.979 556.228C898.429 550.476 905.347 542.654 910.081 537.779Z"/><path fill="white" d="M886.988 559.162L903.776 569.917C895.771 577.647 884.997 588.191 876.508 595.009C871.763 593.811 867.283 591.631 862.931 589.41C867.354 583.114 881.932 564.819 886.988 559.162Z"/><path fill="#45BCC9" d="M888.103 564.837C891.583 566.845 892.856 567.759 895.993 570.289C889.217 576.46 882.487 582.679 875.801 588.947C874.206 589.81 870.916 588.174 869.198 587.549C875.66 580.428 881.76 571.326 888.103 564.837Z"/><path fill="white" d="M821.444 517.242C825.291 519.833 830.951 523.694 835.071 525.551C834.278 529.308 828.451 541.442 826.677 545.399C823.332 552.854 820.216 560.395 816.98 567.893C815.274 567.13 812.564 566.25 810.736 565.59C811.396 559.113 814.017 549.61 815.501 543.248C817.52 534.589 819.418 525.892 821.444 517.242Z"/><path fill="#498453" d="M825.541 525.584C827.276 526.355 828.128 527.103 829.428 528.409L824.985 536.597L823.894 537.758L823.287 537.478C822.932 534.472 824.711 528.588 825.541 525.584Z"/><path fill="white" d="M798.17 612.158C800.508 611.285 803.109 612.481 803.968 614.824C804.828 617.166 803.617 619.761 801.27 620.607C798.941 621.447 796.371 620.248 795.518 617.924C794.666 615.6 795.851 613.023 798.17 612.158Z"/><path fill="#45BCC9" d="M183.538 605.097C194.903 604.328 211.164 604.841 222.823 604.851L293.194 604.884L514.14 604.961L689.569 604.991L744.06 604.991C752.247 604.986 760.712 604.736 768.878 604.965C771.274 605.033 772.66 605.437 774.117 607.16C774.121 609.084 774.369 608.159 772.958 609.899C768.818 610.933 744.526 610.414 739.05 610.411L666.852 610.477L341.553 610.441L224.966 610.428C217.272 610.37 209.578 610.396 201.885 610.505C197.175 610.556 185.257 611.833 182.591 608.081C182.644 605.986 182.379 606.957 183.538 605.097Z"/><path fill="#193045" d="M340.267 522.633C333.612 534.734 319.611 540.799 306.23 537.376C292.85 533.953 283.482 521.909 283.457 508.098C283.431 494.287 292.755 482.209 306.123 478.736C319.49 475.264 333.513 481.277 340.213 493.354C345.262 502.456 345.282 513.513 340.267 522.633Z"/><path fill="white" d="M310.148 489.775C320.242 487.897 329.96 494.514 331.913 504.594C333.865 514.674 327.32 524.44 317.255 526.467C307.084 528.515 297.193 521.886 295.22 511.701C293.247 501.515 299.949 491.673 310.148 489.775Z"/><path fill="#45BCC9" d="M548.654 478.05L559.534 477.987C562.642 497.045 565.339 518.558 567.666 537.828L556.189 537.954C554.81 528.995 553.818 519.173 552.731 510.119C552.407 508.815 551.763 502.134 551.565 500.424C547.25 511.514 542.969 526.413 539.489 537.854L529.323 537.736C525.856 526.226 521.716 511.317 517.252 500.408C516.893 510.101 514.151 527.86 512.794 537.879L500.806 537.799C503.834 517.961 506.763 498.107 509.592 478.238C513.231 478.079 517.429 478.218 521.117 478.257C525.794 491.535 530.25 505.612 534.75 519.028C539.497 505.407 544.132 491.747 548.654 478.05Z"/><path fill="#193045" d="M349.554 478.083C361.514 477.818 383.676 474.923 383.866 492.807C383.919 497.754 381.365 500.604 378.086 503.877C389.102 509.624 391.875 518.673 386.108 529.75C378.518 540.117 360.95 538.173 349.556 538.128C349.315 518.348 349.55 497.907 349.554 478.083Z"/><path fill="white" d="M361.633 510.985C366.245 510.961 370.351 510.784 374.425 513.407C379.267 516.525 377.61 521.349 374.495 524.969C369.78 527.393 366.918 527.002 361.628 527.025L361.633 510.985Z"/><path fill="white" d="M361.521 487.966C368.454 488.279 378.351 490.371 371.23 499.306C368.772 501.027 364.583 500.805 361.519 500.921L361.521 487.966Z"/><path fill="#45BCC9" d="M629.404 478.236C637.906 478.032 650.992 477.111 658.429 480.636C662.347 482.471 665.308 485.876 666.579 490.012C668.155 494.996 667.661 500.404 665.206 505.019C662.324 510.338 658.815 512.241 653.395 513.875C658.171 519.738 665.873 531.376 670.297 537.761L659.875 537.9C658.503 537.927 658.233 537.873 656.867 537.648C653.55 535.199 644.479 519.815 640.975 514.873C640.853 522.548 640.845 530.225 640.954 537.901L629.052 537.808C628.999 531.172 628.375 481.292 629.404 478.236Z"/><path fill="white" d="M641.149 489.371C649.91 489.309 661.275 491.584 652.791 502.535C648.311 505.282 646.289 504.993 641.085 505.055L641.149 489.371Z"/><path fill="#193045" d="M222.803 477.2C231.433 477.08 237.048 479.897 243.908 484.597L237.469 493.755C227.441 487.507 215.557 486.05 208.573 497.54C205.719 502.142 204.847 507.701 206.153 512.956C209.455 526.141 221.024 529.663 233.017 525.88C233.16 523.281 233.083 519.946 233.089 517.281C229.009 517.149 224.432 517.267 220.313 517.283L220.337 506.38L228.409 506.444L244.565 506.427L244.617 532.94C212.173 553.691 178.168 518.854 200.448 487.96C205.331 481.19 214.681 477.889 222.803 477.2Z"/><path fill="#092036" d="M209.523 526.349L210.351 526.823C209.525 528.312 207.511 529.516 206.023 530.635C205.548 530.374 205.857 530.582 205.267 529.815C206.041 528.389 208.094 527.297 209.523 526.349Z"/><path fill="#092036" d="M205.655 485.449C207.768 486.816 210.283 487.887 210.145 490.482C208.42 489.198 206.548 488.043 205.363 486.303L205.655 485.449Z"/><path fill="#45BCC9" d="M590.877 478.014L602.85 478.004L624.486 537.683C620.407 537.936 615.991 537.866 611.879 537.881C610.726 534.712 609.342 529.49 607.281 526.914C606.139 525.486 605.028 525.891 603.049 525.857L585.911 525.84C584.541 529.812 583.267 533.817 582.088 537.851L569.087 537.862C575.53 518.422 583.944 497.689 590.877 478.014Z"/><path fill="white" d="M596.262 494.287C598.301 496.191 602.734 511.562 603.826 515.101L597.893 515.336L589.48 515.297C591.67 508.271 593.931 501.267 596.262 494.287Z"/><path fill="#193045" d="M411.797 478.142L423.063 478.016C429.946 498.107 437.208 518.066 444.844 537.883C440.575 537.936 436.305 537.886 432.038 537.733L427.92 525.984L423.046 525.658L405.979 525.661C404.511 529.438 403.126 533.904 401.82 537.787C397.88 537.869 393.574 537.711 389.606 537.646C395.443 521.899 401.689 506.336 407.558 490.605C408.994 486.757 410.898 482.114 411.797 478.142Z"/><path fill="white" d="M417.023 493.741C418.667 497.134 423.619 511.978 424.425 515.559L418.486 515.607L409.577 515.529C411.947 508.229 414.429 500.965 417.023 493.741Z"/><path fill="#45BCC9" d="M708.583 477.982L722.44 478.095C714.793 486.137 705.304 498.158 697.979 506.967C706.512 517.297 714.752 527.204 723.138 537.717C718.395 537.891 713.451 537.9 708.691 537.977C702.692 530.065 695.276 521.098 688.883 513.561L688.008 513.198C686.99 515.419 687.477 534.001 687.502 537.8C683.545 537.858 679.506 537.825 675.541 537.836C675.743 518.022 675.774 498.206 675.635 478.391C679.551 478.341 683.55 478.395 687.473 478.405L687.601 502.221C694.691 494.201 701.259 485.93 708.583 477.982Z"/><path fill="#45BCC9" d="M914.195 470.705C918.178 473.412 915.316 485.183 914.496 489.188C912.486 499.001 908.23 507.268 903.259 515.806C889.208 506.428 875.598 496.449 861.49 487.094C856.687 483.754 851.308 480.224 846.916 476.424C847.37 476.21 847.825 476 848.282 475.792C867.485 467.056 865.509 483.02 872.232 484.6C876.55 485.615 882.921 477.303 886.578 475.074C894.228 470.41 900.447 477.843 907.551 479.506C910.456 478.792 912.273 473.87 914.195 470.705Z"/><path fill="#45BCC9" d="M729.207 478.209C739.042 477.755 750.664 478.031 760.622 478.084L760.726 489.346C753.987 489.398 747.248 489.399 740.509 489.347C740.521 493.928 740.557 498.509 740.615 503.09L756.844 503.037L757.072 513.517C751.852 513.741 745.8 513.659 740.512 513.699L740.514 523.125C740.556 524.811 740.283 525.069 741.041 526.31C745.059 526.823 755.421 526.555 759.969 526.538L760.023 538L728.571 537.971C728.402 523.495 728.514 494.794 728.592 478.956C728.797 478.707 729.002 478.458 729.207 478.209Z"/><path fill="#45BCC9" d="M907.188 518.343C913.885 512.835 935.687 498.469 946.422 500.473C947.814 500.733 949.501 507.451 950.05 509.329C955.624 507.738 955.477 505.471 957.145 500.284C958.528 501.907 961.942 505.491 961.213 507.402C959.549 511.764 956.562 519.322 953.583 522.685C947.794 528.264 941.241 532.991 934.122 536.725C927.019 532.423 913.985 523.309 907.188 518.343Z"/><path fill="#45BCC9" d="M950.05 509.329C955.624 507.738 955.477 505.471 957.145 500.284C958.528 501.907 961.942 505.491 961.213 507.402C959.549 511.764 956.562 519.322 953.583 522.685L952.301 522.022C955.042 519.046 957.18 515.339 954.076 511.885C952.154 511.095 952.041 511.136 949.916 511.191L950.05 509.329Z"/><path fill="white" d="M949.916 511.191C952.041 511.136 952.154 511.095 954.076 511.885C957.18 515.339 955.042 519.046 952.301 522.022C947.933 519.405 948.202 518.34 944.837 514.356L949.916 511.191Z"/><path fill="#45BCC9" d="M765.956 478.024L804.983 477.968L804.995 489.468L790.938 489.423L791.015 523.75L791.041 537.954L779.123 537.941L779.002 489.481L765.889 489.452L765.956 478.024Z"/><path fill="#193045" d="M448.89 478.083L460.708 478.032C460.492 493.902 460.843 510.603 460.933 526.513L479.06 526.537L479.075 537.969C468.942 538.002 458.808 537.977 448.675 537.893C449.225 518.275 448.969 497.742 448.89 478.083Z"/><path fill="#193045" d="M253.047 478.231L264.562 478.069L264.514 526.718L284.176 526.854L284.109 538.044L252.961 538.003L253.047 478.231Z"/><path fill="#193045" d="M841.305 628.2C849.191 626.462 856.992 631.444 858.732 639.329C860.471 647.215 855.49 655.017 847.605 656.758C839.718 658.499 831.914 653.516 830.174 645.629C828.434 637.742 833.418 629.939 841.305 628.2Z"/><path fill="white" d="M842.72 637.835C844.966 636.968 847.495 638.029 848.45 640.239C849.405 642.449 848.443 645.018 846.272 646.058C844.79 646.768 843.039 646.61 841.708 645.647C840.377 644.684 839.679 643.07 839.891 641.44C840.102 639.811 841.187 638.427 842.72 637.835Z"/><path fill="#253F53" d="M474.934 559.966C476.46 559.967 477.395 559.834 478.795 560.455C481.366 565.047 488.711 583.056 490.527 588.329L490.243 588.879C487.785 589.413 486.691 589.954 484.721 588.253C484.266 586.069 484.286 584.897 482.806 583.38C481.297 582.569 479.775 582.831 478.003 582.872L471.451 582.645C469.059 588.691 469.705 589.626 462.965 589.353C466.821 579.662 470.787 569.501 474.934 559.966Z"/><path fill="white" d="M476.664 568.818C478.056 570.129 480.683 575.852 479.954 577.792L478.622 578.065C476.339 578.016 475.63 578.394 474.175 577.227C473.572 574.949 475.638 571.235 476.664 568.818Z"/><path fill="#253F53" d="M518.804 559.557C519.687 559.501 520.572 559.468 521.457 559.457C524.509 559.416 527.802 560.068 530.057 562.228C530.834 564.33 530.63 563.583 530.214 566.031C529.947 566.302 529.681 566.573 529.415 566.845C518.311 562.742 507.821 567.029 514.081 580.123C517.137 586.515 523.799 584.887 528.497 582.004L529.264 581.543L530.317 582.178C531.422 584.172 531.199 583.147 531.115 585.343C530.48 586.591 529.758 587.725 528.417 588.267C514.751 593.792 502.695 581.609 508.261 568.018C510.244 563.177 514.281 561.142 518.804 559.557Z"/><path fill="#45BCC9" d="M929.945 472.914C934.492 475.207 936.568 476.332 940.203 480.058C928.093 481.641 927.07 482.001 921.834 493.258C925.591 491.787 927.959 490.482 931.966 491.162L932.568 491.939C931.579 496.779 922.615 501.449 918.539 503.877C917.04 505.177 914.152 507.16 912.464 508.402C913.281 505.954 914.077 503.5 914.851 501.039C918.338 489.382 920.336 481.323 929.945 472.914Z"/><path fill="#45BCC9" d="M914.851 501.039C916.159 502.119 917.092 502.982 918.539 503.877C917.04 505.177 914.152 507.16 912.464 508.402C913.281 505.954 914.077 503.5 914.851 501.039Z"/><path fill="#253F53" d="M433.035 559.577C435.825 559.233 446.763 560.058 443.876 564.881C441.922 565.657 437.441 564.796 435.057 564.495C433.62 565.184 434.088 564.652 433.553 566.093C434.872 571.003 442.959 573.474 445.121 579.325C447.474 585.694 442.353 588.252 436.868 589.521C433.394 589.567 429.021 589.018 427.556 585.479C427.803 583.245 428.064 583.549 429.541 581.426C430.646 582.271 432.428 583.676 433.709 584.107C435.474 584.702 439.953 584.237 440.314 581.938C438.118 576.385 417.243 569.484 433.035 559.577Z"/><path fill="#253F53" d="M453.678 582.827C454.817 582.436 456.078 582.689 456.979 583.488C457.879 584.287 458.28 585.509 458.027 586.686C457.774 587.864 456.906 588.813 455.757 589.172C454.015 589.716 452.158 588.759 451.59 587.024C451.022 585.29 451.952 583.42 453.678 582.827Z"/><path fill="#253F53" d="M539.224 583.245C540.281 582.774 541.51 582.909 542.439 583.599C543.368 584.288 543.853 585.425 543.707 586.573C543.562 587.721 542.81 588.702 541.738 589.139C540.118 589.799 538.267 589.038 537.581 587.429C536.894 585.819 537.626 583.957 539.224 583.245Z"/><path fill="#253F53" d="M496.737 583.868C498.207 583.104 500.018 583.659 500.806 585.116C501.595 586.572 501.07 588.392 499.627 589.205C498.672 589.743 497.501 589.724 496.563 589.156C495.626 588.587 495.068 587.557 495.104 586.461C495.14 585.365 495.765 584.374 496.737 583.868Z"/></svg>